<svg xmlns="http://www.w3.org/2000/svg" viewBox="0 0 100 100">
  <defs>
    <linearGradient id="brandGrad" x1="0%" y1="0%" x2="100%" y2="100%">
      <stop offset="0%" stop-color="#635BFF"/>
      <stop offset="100%" stop-color="#14B8A6"/>
    </linearGradient>
  </defs>
  <rect width="100" height="100" rx="26" fill="url(#brandGrad)"/>
  <path d="M30 68 C30 52 42 48 50 44 C60 40 68 38 68 28 C68 22 62 18 52 18 C40 18 34 24 34 24" stroke="white" stroke-width="8" stroke-linecap="round" fill="none"/>
  <path d="M70 32 C70 48 58 52 50 56 C40 60 32 62 32 72 C32 78 38 82 48 82 C60 82 66 76 66 76" stroke="white" stroke-width="8" stroke-linecap="round" fill="none"/>
  <circle cx="68" cy="28" r="5" fill="#38BDF8"/>
</svg>
